<svg xmlns="http://www.w3.org/2000/svg" xml:space="preserve" viewBox="0 0 512 512"><path d="m120.887 512-21.333-14.222L78.221 512v-71.111h42.666z" style="fill:#d80027"/><path d="M405.333 166.073h71.111v303.26h-71.111z" style="fill:#ffda44"/><path d="M405.333 166.073h71.111v209.394h-71.111z" style="fill:#ff5023"/><path d="M405.333 166.073h71.111V281.6h-71.111z" style="fill:#d80027"/><path d="M405.333 93.867h71.111v93.867h-71.111z" style="fill:#6c0014"/><path d="M405.333 0h71.111v93.867h-71.111z"/><path d="M78.222 0H448v469.333H78.222z" style="fill:#acabb1"/><path d="M63.999 0H263.11v469.333H63.999z" style="fill:#818085"/><path d="M35.556 0h42.667v469.333H35.556z"/><path d="M130.62 220.029v-63.495h27.365c3.1 0 5.961.641 8.586 1.923 2.623 1.283 4.874 2.951 6.751 5.008a23.416 23.416 0 0 1 4.426 7.066c1.074 2.654 1.61 5.321 1.61 8.004a22.75 22.75 0 0 1-1.519 8.183c-1.015 2.652-2.431 5.008-4.248 7.066-1.819 2.057-4.023 3.698-6.618 4.918-2.593 1.222-5.44 1.833-8.54 1.833h-10.374v19.496H130.62v-.002zm17.439-34.698h9.212c1.074 0 2.071-.492 2.995-1.476.923-.983 1.387-2.758 1.387-5.321 0-2.623-.536-4.412-1.61-5.366s-2.146-1.432-3.22-1.432h-8.764v13.595zM216.293 220.565c-4.828 0-9.212-.924-13.147-2.772-3.935-1.847-7.305-4.277-10.105-7.289-2.803-3.009-4.979-6.453-6.528-10.33a31.944 31.944 0 0 1-2.325-11.984c0-4.173.804-8.198 2.414-12.072 1.61-3.876 3.86-7.289 6.753-10.24 2.89-2.951 6.318-5.305 10.283-7.066 3.965-1.758 8.303-2.637 13.012-2.637 4.828 0 9.212.924 13.146 2.772 3.937 1.849 7.303 4.292 10.106 7.333a32.935 32.935 0 0 1 6.484 10.374c1.519 3.877 2.281 7.841 2.281 11.894 0 4.174-.805 8.182-2.415 12.028-1.61 3.846-3.846 7.245-6.707 10.196-2.862 2.951-6.275 5.321-10.24 7.11-3.967 1.789-8.303 2.683-13.012 2.683zm-14.399-32.195c0 2.146.297 4.218.895 6.215.594 1.998 1.489 3.77 2.682 5.321 1.193 1.552 2.697 2.803 4.517 3.758 1.818.954 3.979 1.431 6.484 1.431s4.681-.492 6.529-1.476c1.847-.983 3.352-2.264 4.517-3.844 1.162-1.579 2.025-3.383 2.593-5.412.565-2.027.85-4.083.85-6.171 0-2.146-.3-4.217-.895-6.215-.597-1.997-1.508-3.756-2.728-5.276-1.223-1.52-2.743-2.742-4.561-3.666-1.819-.923-3.949-1.387-6.394-1.387-2.505 0-4.665.478-6.484 1.431-1.819.954-3.325 2.223-4.517 3.802-1.193 1.58-2.072 3.369-2.637 5.365a22.237 22.237 0 0 0-.851 6.124zM257.431 220.029v-63.495h29.154c3.099 0 5.961.641 8.585 1.923 2.624 1.283 4.875 2.951 6.753 5.008 1.877 2.057 3.352 4.415 4.426 7.066 1.074 2.654 1.61 5.321 1.61 8.004 0 3.698-.804 7.141-2.414 10.33-1.61 3.19-3.846 5.798-6.709 7.825l13.416 23.342h-19.675l-11.18-19.497h-6.528v19.496l-17.438-.002zm17.439-34.698h10.999c1.072 0 2.071-.596 2.995-1.789.923-1.192 1.387-2.863 1.387-5.008 0-2.206-.536-3.89-1.61-5.053-1.074-1.162-2.146-1.745-3.22-1.745h-10.553v13.595h.002zM367.697 171.736h-18.243v48.293h-17.439v-48.293h-18.334v-15.202h54.016v15.202zM130.62 298.398v-63.495h43.553v15.202H148.06v10.553h21.285v14.131H148.06v23.61h-17.44v-.001zM210.123 298.935c-4.83 0-9.213-.923-13.147-2.772-3.935-1.847-7.305-4.277-10.105-7.289-2.803-3.009-4.979-6.453-6.528-10.33a31.944 31.944 0 0 1-2.325-11.984c0-4.173.804-8.198 2.413-12.072 1.61-3.876 3.86-7.289 6.753-10.24 2.89-2.951 6.318-5.305 10.283-7.066 3.965-1.758 8.303-2.638 13.012-2.638 4.83 0 9.212.924 13.146 2.772 3.937 1.849 7.303 4.292 10.106 7.333a32.935 32.935 0 0 1 6.484 10.374c1.519 3.876 2.281 7.841 2.281 11.894 0 4.174-.805 8.182-2.415 12.028-1.61 3.846-3.846 7.245-6.707 10.196-2.861 2.951-6.275 5.321-10.24 7.11-3.964 1.79-8.302 2.684-13.011 2.684zm-14.398-32.194c0 2.146.297 4.218.895 6.215.594 1.998 1.489 3.77 2.682 5.321 1.193 1.552 2.697 2.803 4.517 3.758 1.818.954 3.979 1.431 6.484 1.431s4.681-.492 6.529-1.476c1.847-.983 3.352-2.264 4.517-3.844 1.162-1.579 2.025-3.383 2.593-5.412.565-2.027.85-4.083.85-6.171 0-2.146-.3-4.217-.895-6.215-.597-1.997-1.506-3.756-2.728-5.276-1.223-1.52-2.743-2.742-4.561-3.667-1.819-.923-3.95-1.387-6.394-1.387-2.505 0-4.665.478-6.484 1.431-1.819.954-3.325 2.223-4.517 3.802-1.193 1.58-2.072 3.369-2.638 5.365a22.232 22.232 0 0 0-.85 6.125zM251.261 298.398v-63.495H268.7v48.293h28.796v15.202h-46.235zM304.919 298.398v-63.495h17.439v63.495h-17.439zM363.226 298.935c-4.828 0-9.212-.923-13.147-2.772-3.935-1.847-7.305-4.277-10.105-7.289-2.803-3.009-4.979-6.453-6.528-10.33a31.944 31.944 0 0 1-2.325-11.984c0-4.173.804-8.198 2.414-12.072 1.61-3.876 3.86-7.289 6.753-10.24 2.89-2.951 6.318-5.305 10.283-7.066 3.965-1.758 8.303-2.638 13.012-2.638 4.83 0 9.212.924 13.146 2.772 3.937 1.849 7.303 4.292 10.106 7.333a32.935 32.935 0 0 1 6.484 10.374c1.519 3.876 2.28 7.841 2.28 11.894 0 4.174-.805 8.182-2.415 12.028-1.61 3.846-3.846 7.245-6.707 10.196-2.862 2.951-6.275 5.321-10.24 7.11-3.965 1.79-8.302 2.684-13.011 2.684zm-14.398-32.194c0 2.146.297 4.218.895 6.215.595 1.998 1.489 3.77 2.682 5.321 1.193 1.552 2.697 2.803 4.517 3.758 1.818.954 3.979 1.431 6.484 1.431s4.681-.492 6.529-1.476c1.847-.983 3.352-2.264 4.517-3.844 1.162-1.579 2.025-3.383 2.593-5.412.565-2.027.85-4.083.85-6.171 0-2.146-.3-4.217-.895-6.215-.597-1.997-1.506-3.756-2.728-5.276-1.223-1.52-2.743-2.742-4.561-3.667-1.819-.923-3.95-1.387-6.394-1.387-2.505 0-4.665.478-6.484 1.431-1.819.954-3.325 2.223-4.517 3.802-1.193 1.58-2.072 3.369-2.637 5.365a22.233 22.233 0 0 0-.851 6.125z" style="fill:#fff"/></svg>